<?xml version="1.0" encoding="utf-8"?>
<!-- Generator: Adobe Illustrator 18.1.1, SVG Export Plug-In . SVG Version: 6.00 Build 0)  -->
<svg version="1.1" id="Layer_1" xmlns="http://www.w3.org/2000/svg" xmlns:xlink="http://www.w3.org/1999/xlink" x="0px" y="0px"
	 viewBox="0 0 300 300" enable-background="new 0 0 300 300" xml:space="preserve">
<line fill="none" stroke="#DD2397" stroke-width="3" stroke-miterlimit="10" x1="44.8" y1="109.3" x2="17.8" y2="136.4"/>
<line fill="none" stroke="#DD2397" stroke-width="3" stroke-miterlimit="10" x1="117.2" y1="109.3" x2="144.2" y2="136.3"/>
<line fill="none" stroke="#00AE8D" stroke-width="3" stroke-miterlimit="10" x1="146.2" y1="139.3" x2="214.8" y2="166.3"/>
<line fill="none" stroke="#00AEEF" stroke-width="3" stroke-miterlimit="10" x1="-103.5" y1="139.3" x2="248.7" y2="139.3"/>
<line fill="none" stroke="#F7941E" stroke-width="3" stroke-miterlimit="10" x1="-77.6" y1="166.3" x2="214.8" y2="166.3"/>
<line fill="none" stroke="#F7941E" stroke-width="3" stroke-miterlimit="10" x1="-103.5" y1="139.3" x2="-76.5" y2="166.3"/>
<circle fill="#00AEEF" cx="-103.5" cy="139.3" r="6.5"/>
<circle fill="#00AEEF" cx="15.4" cy="139.3" r="6.5"/>
<circle fill="#00AEEF" cx="146.2" cy="139.3" r="6.5"/>
<circle fill="#F7941E" cx="-75.6" cy="165.3" r="6.5"/>
<circle fill="#F7941E" cx="214.8" cy="165.3" r="6.5"/>
<line fill="none" stroke="#DD2397" stroke-width="3" stroke-miterlimit="10" x1="120.5" y1="109.3" x2="43.7" y2="109.3"/>
<circle fill="#DD2397" cx="45.7" cy="110.4" r="6.5"/>
<circle fill="#DD2397" cx="80.1" cy="110.4" r="6.5"/>
<circle fill="#DD2397" cx="120.5" cy="110.4" r="6.5"/>
<rect x="-87.3" y="120.1" fill="none" width="42.8" height="13.5"/>
<text transform="matrix(1 0 0 1 55.3755 150)" font-family="'ProximaNova-Regular'" font-size="12">master</text>
<rect x="-8.5" y="184.1" fill="none" width="51.3" height="13.5"/>
<text transform="matrix(1 0 0 1 130.7335 184.1006)" font-family="'ProximaNova-Regular'" font-size="12">feature-a</text>
<text transform="matrix(1 0 0 1 158.0668 132.8002)" font-family="'ProximaNova-Regular'" font-size="12">pull</text>
<text transform="matrix(1 0 0 1 8.9002 95.5295)" font-family="'ProximaNova-Regular'" font-size="12">feature-b</text>
</svg>
