<?xml version="1.0" encoding="utf-8"?>
<!-- Generator: Adobe Illustrator 18.1.1, SVG Export Plug-In . SVG Version: 6.00 Build 0)  -->
<svg version="1.1" id="Layer_1" xmlns="http://www.w3.org/2000/svg" xmlns:xlink="http://www.w3.org/1999/xlink" x="0px" y="0px"
	 viewBox="0 0 300 300" enable-background="new 0 0 300 300" xml:space="preserve">
<line fill="none" stroke="#DD2397" stroke-width="3" stroke-miterlimit="10" x1="-6.5" y1="109.3" x2="-33.5" y2="136.4"/>
<line fill="none" stroke="#DD2397" stroke-width="3" stroke-miterlimit="10" x1="65.9" y1="109.3" x2="92.9" y2="136.3"/>
<line fill="none" stroke="#00AE8D" stroke-width="3" stroke-miterlimit="10" x1="94.9" y1="139.3" x2="163.5" y2="166.3"/>
<line fill="none" stroke="#00AEEF" stroke-width="3" stroke-miterlimit="10" x1="-154.8" y1="139.3" x2="247.3" y2="139.3"/>
<line fill="none" stroke="#F7941E" stroke-width="3" stroke-miterlimit="10" x1="-128.9" y1="166.3" x2="163.5" y2="166.3"/>
<line fill="none" stroke="#F7941E" stroke-width="3" stroke-miterlimit="10" x1="-154.8" y1="139.3" x2="-127.8" y2="166.3"/>
<line fill="none" stroke="#F7941E" stroke-width="3" stroke-miterlimit="10" x1="190.5" y1="139.3" x2="163.5" y2="166.3"/>
<circle fill="#00AEEF" cx="-154.8" cy="139.3" r="6.5"/>
<circle fill="#00AEEF" cx="-35.9" cy="139.3" r="6.5"/>
<circle fill="#00AEEF" cx="190.5" cy="139.3" r="6.5"/>
<circle fill="#00AEEF" cx="94.9" cy="139.3" r="6.5"/>
<circle fill="#F7941E" cx="-126.9" cy="165.3" r="6.5"/>
<circle fill="#F7941E" cx="163.5" cy="165.3" r="6.5"/>
<line fill="none" stroke="#DD2397" stroke-width="3" stroke-miterlimit="10" x1="69.2" y1="109.3" x2="-7.6" y2="109.3"/>
<circle fill="#DD2397" cx="-5.6" cy="110.4" r="6.5"/>
<circle fill="#DD2397" cx="28.8" cy="110.4" r="6.5"/>
<circle fill="#DD2397" cx="69.2" cy="110.4" r="6.5"/>
<rect x="-138.6" y="120.1" fill="none" width="42.8" height="13.5"/>
<text transform="matrix(1 0 0 1 42.0755 152.7993)" font-family="'ProximaNova-Regular'" font-size="12">master</text>
<rect x="-59.8" y="184.1" fill="none" width="51.3" height="13.5"/>
<text transform="matrix(1 0 0 1 79.4335 184.1006)" font-family="'ProximaNova-Regular'" font-size="12">feature-a</text>
<text transform="matrix(1 0 0 1 173.9665 90.1337)" font-family="'ProximaNova-Regular'" font-size="12">merge</text>
<text transform="matrix(1 0 0 1 21.2835 95.5297)" font-family="'ProximaNova-Regular'" font-size="12">feature-b</text>
<g>
	<g>
		<line fill="none" stroke="#000000" stroke-miterlimit="10" x1="190.5" y1="122.1" x2="190.4" y2="99.1"/>
		<g>
			<path d="M190.5,126.8c0.8-2.3,2.3-5.1,3.8-6.9l-3.8,1.4l-3.8-1.4C188.2,121.7,189.5,124.6,190.5,126.8z"/>
		</g>
	</g>
</g>
</svg>
