<?xml version="1.0" encoding="utf-8"?>
<!-- Generator: Adobe Illustrator 18.1.1, SVG Export Plug-In . SVG Version: 6.00 Build 0)  -->
<svg version="1.1" id="Layer_1" xmlns="http://www.w3.org/2000/svg" xmlns:xlink="http://www.w3.org/1999/xlink" x="0px" y="0px"
	 viewBox="0 0 300 100" enable-background="new 0 0 300 100" xml:space="preserve">
<line fill="none" stroke="#00AEEF" stroke-width="3" stroke-miterlimit="10" x1="24.7" y1="39.3" x2="213.1" y2="39.3"/>
<line fill="none" stroke="#F7941E" stroke-width="3" stroke-miterlimit="10" x1="169.5" y1="66.3" x2="261" y2="66.3"/>
<line fill="none" stroke="#F7941E" stroke-width="3" stroke-miterlimit="10" x1="143.6" y1="39.3" x2="170.6" y2="66.3"/>
<circle fill="#00AEEF" cx="24.7" cy="39.3" r="6.5"/>
<circle fill="#00AEEF" cx="143.6" cy="39.3" r="6.5"/>
<circle fill="#F7941E" cx="171.5" cy="65.3" r="6.5"/>
<rect x="40.9" y="20.1" fill="none" width="42.8" height="13.5"/>
<text transform="matrix(1 0 0 1 40.9088 28.0772)" font-family="'ProximaNova-Regular'" font-size="12">master</text>
<g>
	<g>
		<line fill="none" stroke="#000000" stroke-miterlimit="10" x1="219.7" y1="75.5" x2="230.8" y2="86.5"/>
		<g>
			<path d="M217.5,73.3c0.7,1.4,1.3,3.4,1.4,4.9l1.1-2.4l2.4-1.1C220.9,74.6,219,73.9,217.5,73.3z"/>
		</g>
	</g>
</g>
<rect x="238.6" y="84.1" fill="none" width="51.3" height="13.5"/>
<text transform="matrix(1 0 0 1 238.6445 92.1456)" font-family="'ProximaNova-Regular'" font-size="12">branch</text>
</svg>
