<?xml version="1.0" encoding="utf-8"?>
<!-- Generator: Adobe Illustrator 18.1.1, SVG Export Plug-In . SVG Version: 6.00 Build 0)  -->
<svg version="1.1" id="Layer_1" xmlns="http://www.w3.org/2000/svg" xmlns:xlink="http://www.w3.org/1999/xlink" x="0px" y="0px"
	 viewBox="0 0 300 300" enable-background="new 0 0 300 300" xml:space="preserve">
<line fill="none" stroke="#DD2397" stroke-width="3" stroke-miterlimit="10" x1="242.2" y1="109.3" x2="215.2" y2="136.4"/>
<line fill="none" stroke="#00AEEF" stroke-width="3" stroke-miterlimit="10" x1="24.7" y1="139.3" x2="292" y2="139.3"/>
<line fill="none" stroke="#F7941E" stroke-width="3" stroke-miterlimit="10" x1="169.5" y1="166.3" x2="261" y2="166.3"/>
<line fill="none" stroke="#F7941E" stroke-width="3" stroke-miterlimit="10" x1="143.6" y1="139.3" x2="170.6" y2="166.3"/>
<circle fill="#00AEEF" cx="24.7" cy="139.3" r="6.5"/>
<circle fill="#00AEEF" cx="143.6" cy="139.3" r="6.5"/>
<circle fill="#00AEEF" cx="213.1" cy="139.3" r="6.5"/>
<circle fill="#F7941E" cx="171.5" cy="165.3" r="6.5"/>
<line fill="none" stroke="#DD2397" stroke-width="3" stroke-miterlimit="10" x1="300" y1="109.3" x2="241.1" y2="109.3"/>
<circle fill="#DD2397" cx="243.1" cy="110.4" r="6.5"/>
<rect x="40.9" y="120.1" fill="none" width="42.8" height="13.5"/>
<text transform="matrix(1 0 0 1 40.9088 128.0772)" font-family="'ProximaNova-Regular'" font-size="12">master</text>
<g>
	<g>
		<line fill="none" stroke="#000000" stroke-miterlimit="10" x1="219.7" y1="175.5" x2="230.8" y2="186.5"/>
		<g>
			<path d="M217.5,173.3c0.7,1.4,1.3,3.4,1.4,4.9l1.1-2.4l2.4-1.1C220.9,174.6,219,173.9,217.5,173.3z"/>
		</g>
	</g>
</g>
<g>
	<g>
		<line fill="none" stroke="#000000" stroke-miterlimit="10" x1="226.8" y1="96.5" x2="215.8" y2="85.5"/>
		<g>
			<path d="M229,98.7c-0.7-1.4-1.3-3.4-1.4-4.9l-1.1,2.4l-2.4,1.1C225.6,97.4,227.5,98.1,229,98.7z"/>
		</g>
	</g>
</g>
<rect x="238.6" y="184.1" fill="none" width="51.3" height="13.5"/>
<text transform="matrix(1 0 0 1 238.6445 192.1456)" font-family="'ProximaNova-Regular'" font-size="12">feature-a</text>
<text transform="matrix(1 0 0 1 161.4666 85.5295)" font-family="'ProximaNova-Regular'" font-size="12">feature-b</text>
</svg>
