<?xml version="1.0" encoding="utf-8"?>
<!-- Generator: Adobe Illustrator 18.1.1, SVG Export Plug-In . SVG Version: 6.00 Build 0)  -->
<svg version="1.1" id="Layer_1" xmlns="http://www.w3.org/2000/svg" xmlns:xlink="http://www.w3.org/1999/xlink" x="0px" y="0px"
	 viewBox="0 0 300 300" enable-background="new 0 0 300 300" xml:space="preserve">
<line fill="none" stroke="#DD2397" stroke-width="3" stroke-miterlimit="10" x1="173" y1="109.3" x2="146" y2="136.4"/>
<line fill="none" stroke="#DD2397" stroke-width="3" stroke-miterlimit="10" x1="245.4" y1="109.3" x2="272.4" y2="136.3"/>
<line fill="none" stroke="#00AEEF" stroke-width="3" stroke-miterlimit="10" x1="24.7" y1="139.3" x2="292" y2="139.3"/>
<line fill="none" stroke="#F7941E" stroke-width="3" stroke-miterlimit="10" x1="50.6" y1="166.3" x2="142.1" y2="166.3"/>
<line fill="none" stroke="#F7941E" stroke-width="3" stroke-miterlimit="10" x1="24.7" y1="139.3" x2="51.7" y2="166.3"/>
<circle fill="#00AEEF" cx="24.7" cy="139.3" r="6.5"/>
<circle fill="#00AEEF" cx="143.6" cy="139.3" r="6.5"/>
<circle fill="#00AEEF" cx="274.4" cy="139.3" r="6.5"/>
<circle fill="#F7941E" cx="52.6" cy="165.3" r="6.5"/>
<line fill="none" stroke="#DD2397" stroke-width="3" stroke-miterlimit="10" x1="248.7" y1="109.3" x2="171.9" y2="109.3"/>
<circle fill="#DD2397" cx="173.9" cy="110.4" r="6.5"/>
<circle fill="#DD2397" cx="208.3" cy="110.4" r="6.5"/>
<circle fill="#DD2397" cx="248.7" cy="110.4" r="6.5"/>
<rect x="40.9" y="120.1" fill="none" width="42.8" height="13.5"/>
<text transform="matrix(1 0 0 1 40.9088 128.0772)" font-family="'ProximaNova-Regular'" font-size="12">master</text>
<text transform="matrix(1 0 0 1 248.6665 179.4105)" font-family="'ProximaNova-Regular'" font-size="12">merge</text>
<rect x="119.7" y="184.1" fill="none" width="51.3" height="13.5"/>
<text transform="matrix(1 0 0 1 65.7445 184.1001)" font-family="'ProximaNova-Regular'" font-size="12">feature-a</text>
<text transform="matrix(1 0 0 1 137.1002 95.5295)" font-family="'ProximaNova-Regular'" font-size="12">feature-b</text>
<g>
	<g>
		<line fill="none" stroke="#000000" stroke-miterlimit="10" x1="274.4" y1="143.2" x2="274.5" y2="167.2"/>
		<g>
			<path d="M274.4,138.4c-0.8,2.3-2.3,5.1-3.8,6.9l3.8-1.4l3.8,1.4C276.7,143.5,275.4,140.7,274.4,138.4z"/>
		</g>
	</g>
</g>
</svg>
